<?xml version="1.0" encoding="utf-8"?>
<!-- Generator: Adobe Illustrator 19.2.1, SVG Export Plug-In . SVG Version: 6.00 Build 0)  -->
<svg version="1.1" id="Layer_1" xmlns="http://www.w3.org/2000/svg" xmlns:xlink="http://www.w3.org/1999/xlink" x="0px" y="0px"
	 viewBox="0 0 50 50" style="enable-background:new 0 0 50 50;" xml:space="preserve">
<style type="text/css">
	.st0{fill:#383938;}
</style>
<g id="Line">
	<g>
		<path class="st0" d="M48.3,1.7v46.7H1.7V1.7H48.3 M50,0H0v50h50V0L50,0z"/>
		<path class="st0" d="M48.3,1.7v46.7H1.7V1.7H48.3 M50,0H0v50h50V0L50,0z"/>
	</g>
	<path class="st0" d="M21.5,38.5h5.6V25h3.7l0.5-4.7h-4.2l0-2.3c0-1.2,0.1-1.9,1.9-1.9h2.3v-4.7h-3.7c-4.5,0-6.1,2.3-6.1,6.1v2.8
		h-2.8V25h2.8C21.5,25,21.5,38.5,21.5,38.5z"/>
</g>
</svg>
