<?xml version="1.0" encoding="utf-8"?>
<!-- Generator: Adobe Illustrator 19.2.1, SVG Export Plug-In . SVG Version: 6.00 Build 0)  -->
<svg version="1.1" id="Layer_1" xmlns="http://www.w3.org/2000/svg" xmlns:xlink="http://www.w3.org/1999/xlink" x="0px" y="0px"
	 viewBox="0 0 50 50" style="enable-background:new 0 0 50 50;" xml:space="preserve">
<style type="text/css">
	.st0{fill:#383938;}
</style>
<g id="Line">
	<g>
		<path class="st0" d="M48.3,1.7v46.7H1.7V1.7H48.3 M50,0H0v50h50V0L50,0z"/>
		<path class="st0" d="M48.3,1.7v46.7H1.7V1.7H48.3 M50,0H0v50h50V0L50,0z"/>
	</g>
	<path class="st0" d="M38.1,35.9v-9.7c0-5.2-2.8-7.6-6.5-7.6c-3,0-4.3,1.6-5.1,2.8v-2.4H21c0.1,1.6,0,16.9,0,16.9h5.6v-9.4
		c0-0.5,0-1,0.2-1.4c0.4-1,1.3-2.1,2.9-2.1c2,0,2.8,1.6,2.8,3.8v9.1L38.1,35.9L38.1,35.9z M15,16.6c2,0,3.2-1.3,3.2-2.9
		c0-1.7-1.2-2.9-3.1-2.9s-3.2,1.3-3.2,2.9C11.9,15.3,13.1,16.6,15,16.6L15,16.6z M17.8,35.9V18.9h-5.6v16.9H17.8z"/>
</g>
</svg>
